<mxfile host="app.diagrams.net" modified="2023-04-09T11:19:24.687Z" agent="Mozilla/5.0 (Windows NT 10.0; Win64; x64) AppleWebKit/537.36 (KHTML, like Gecko) Chrome/111.0.0.0 Safari/537.36" etag="gi18zoeUY3nP-1vl87Av" version="21.1.5" type="github">
  <diagram name="Page-1" id="2YBvvXClWsGukQMizWep">
    <mxGraphModel dx="467" dy="782" grid="1" gridSize="10" guides="1" tooltips="1" connect="1" arrows="1" fold="1" page="1" pageScale="1" pageWidth="850" pageHeight="1100" math="0" shadow="0">
      <root>
        <mxCell id="0" />
        <mxCell id="1" parent="0" />
        <mxCell id="r3y0NgNmGzbFepppXbVh-26" style="edgeStyle=orthogonalEdgeStyle;rounded=0;orthogonalLoop=1;jettySize=auto;html=1;exitX=0.5;exitY=1;exitDx=0;exitDy=0;entryX=0.5;entryY=0;entryDx=0;entryDy=0;endArrow=none;endFill=0;dashed=1;" parent="1" source="r3y0NgNmGzbFepppXbVh-1" target="r3y0NgNmGzbFepppXbVh-2" edge="1">
          <mxGeometry relative="1" as="geometry" />
        </mxCell>
        <mxCell id="r3y0NgNmGzbFepppXbVh-1" value="Meal360" style="rounded=0;whiteSpace=wrap;html=1;" parent="1" vertex="1">
          <mxGeometry x="100" y="420" width="120" height="30" as="geometry" />
        </mxCell>
        <mxCell id="r3y0NgNmGzbFepppXbVh-13" value="availableRecipes()" style="edgeStyle=orthogonalEdgeStyle;rounded=0;orthogonalLoop=1;jettySize=auto;html=1;entryX=0;entryY=0.5;entryDx=0;entryDy=0;" parent="1" target="r3y0NgNmGzbFepppXbVh-6" edge="1">
          <mxGeometry x="0.3333" y="25" relative="1" as="geometry">
            <mxPoint x="160" y="535" as="sourcePoint" />
            <mxPoint as="offset" />
          </mxGeometry>
        </mxCell>
        <mxCell id="r3y0NgNmGzbFepppXbVh-27" value="listAvailableRecipes(availableRecipes)" style="edgeStyle=orthogonalEdgeStyle;rounded=0;orthogonalLoop=1;jettySize=auto;html=1;exitX=1.084;exitY=0.93;exitDx=0;exitDy=0;exitPerimeter=0;entryX=-0.147;entryY=0.927;entryDx=0;entryDy=0;entryPerimeter=0;" parent="1" source="r3y0NgNmGzbFepppXbVh-2" target="r3y0NgNmGzbFepppXbVh-24" edge="1">
          <mxGeometry x="-0.0163" y="10" relative="1" as="geometry">
            <mxPoint x="640" y="838" as="targetPoint" />
            <Array as="points">
              <mxPoint x="166" y="840" />
            </Array>
            <mxPoint as="offset" />
          </mxGeometry>
        </mxCell>
        <mxCell id="OH_P_FwsMS1MrkZDrAPr-1" style="edgeStyle=orthogonalEdgeStyle;rounded=0;orthogonalLoop=1;jettySize=auto;html=1;exitX=0.5;exitY=1;exitDx=0;exitDy=0;endArrow=none;endFill=0;dashed=1;" edge="1" parent="1" source="r3y0NgNmGzbFepppXbVh-2">
          <mxGeometry relative="1" as="geometry">
            <mxPoint x="160" y="900" as="targetPoint" />
          </mxGeometry>
        </mxCell>
        <mxCell id="r3y0NgNmGzbFepppXbVh-2" value="" style="rounded=0;whiteSpace=wrap;html=1;" parent="1" vertex="1">
          <mxGeometry x="155" y="460" width="10" height="410" as="geometry" />
        </mxCell>
        <mxCell id="r3y0NgNmGzbFepppXbVh-19" value="availableRecipeList" style="edgeStyle=orthogonalEdgeStyle;rounded=0;orthogonalLoop=1;jettySize=auto;html=1;exitX=0;exitY=1;exitDx=0;exitDy=0;entryX=1.033;entryY=0.855;entryDx=0;entryDy=0;entryPerimeter=0;" parent="1" source="r3y0NgNmGzbFepppXbVh-3" target="r3y0NgNmGzbFepppXbVh-2" edge="1">
          <mxGeometry x="0.0715" y="-16" relative="1" as="geometry">
            <mxPoint x="190" y="700" as="targetPoint" />
            <Array as="points">
              <mxPoint x="165" y="810" />
            </Array>
            <mxPoint as="offset" />
          </mxGeometry>
        </mxCell>
        <mxCell id="r3y0NgNmGzbFepppXbVh-3" value="" style="rounded=0;whiteSpace=wrap;html=1;" parent="1" vertex="1">
          <mxGeometry x="340" y="580" width="10" height="230" as="geometry" />
        </mxCell>
        <mxCell id="r3y0NgNmGzbFepppXbVh-4" value="input &quot;available&quot;" style="endArrow=classic;html=1;rounded=0;entryX=0.077;entryY=0.016;entryDx=0;entryDy=0;entryPerimeter=0;" parent="1" target="r3y0NgNmGzbFepppXbVh-2" edge="1">
          <mxGeometry x="-0.164" y="7" width="50" height="50" relative="1" as="geometry">
            <mxPoint x="60" y="467" as="sourcePoint" />
            <mxPoint x="150" y="470" as="targetPoint" />
            <mxPoint as="offset" />
          </mxGeometry>
        </mxCell>
        <mxCell id="r3y0NgNmGzbFepppXbVh-7" value="" style="edgeStyle=orthogonalEdgeStyle;rounded=0;orthogonalLoop=1;jettySize=auto;html=1;endArrow=none;endFill=0;dashed=1;" parent="1" source="r3y0NgNmGzbFepppXbVh-6" target="r3y0NgNmGzbFepppXbVh-3" edge="1">
          <mxGeometry relative="1" as="geometry" />
        </mxCell>
        <mxCell id="r3y0NgNmGzbFepppXbVh-6" value="availableRecipeList: RecipeList" style="rounded=0;whiteSpace=wrap;html=1;" parent="1" vertex="1">
          <mxGeometry x="250" y="520" width="190" height="30" as="geometry" />
        </mxCell>
        <mxCell id="r3y0NgNmGzbFepppXbVh-16" value="opt" style="shape=umlFrame;whiteSpace=wrap;html=1;pointerEvents=0;" parent="1" vertex="1">
          <mxGeometry x="285" y="630" width="300" height="100" as="geometry" />
        </mxCell>
        <mxCell id="r3y0NgNmGzbFepppXbVh-17" value="recipe.isAvailable()" style="text;html=1;align=center;verticalAlign=middle;resizable=0;points=[];autosize=1;strokeColor=none;fillColor=none;" parent="1" vertex="1">
          <mxGeometry x="350" y="630" width="120" height="30" as="geometry" />
        </mxCell>
        <mxCell id="r3y0NgNmGzbFepppXbVh-20" value="loop" style="shape=umlFrame;whiteSpace=wrap;html=1;pointerEvents=0;" parent="1" vertex="1">
          <mxGeometry x="270" y="560" width="330" height="210" as="geometry" />
        </mxCell>
        <mxCell id="r3y0NgNmGzbFepppXbVh-21" value="[for recipe in recipeList]" style="text;html=1;align=center;verticalAlign=middle;resizable=0;points=[];autosize=1;strokeColor=none;fillColor=none;" parent="1" vertex="1">
          <mxGeometry x="350" y="560" width="150" height="30" as="geometry" />
        </mxCell>
        <mxCell id="r3y0NgNmGzbFepppXbVh-22" value="availabeRecipeList.add(recipe)" style="edgeStyle=orthogonalEdgeStyle;rounded=0;orthogonalLoop=1;jettySize=auto;html=1;exitX=1.067;exitY=0.393;exitDx=0;exitDy=0;entryX=1.067;entryY=0.593;entryDx=0;entryDy=0;entryPerimeter=0;exitPerimeter=0;" parent="1" source="r3y0NgNmGzbFepppXbVh-3" target="r3y0NgNmGzbFepppXbVh-3" edge="1">
          <mxGeometry x="-0.0415" y="90" relative="1" as="geometry">
            <Array as="points">
              <mxPoint x="410" y="670" />
              <mxPoint x="410" y="716" />
            </Array>
            <mxPoint as="offset" />
          </mxGeometry>
        </mxCell>
        <mxCell id="r3y0NgNmGzbFepppXbVh-28" style="edgeStyle=orthogonalEdgeStyle;rounded=0;orthogonalLoop=1;jettySize=auto;html=1;exitX=0.5;exitY=1;exitDx=0;exitDy=0;entryX=0.5;entryY=0;entryDx=0;entryDy=0;dashed=1;endArrow=none;endFill=0;" parent="1" source="r3y0NgNmGzbFepppXbVh-23" target="r3y0NgNmGzbFepppXbVh-24" edge="1">
          <mxGeometry relative="1" as="geometry" />
        </mxCell>
        <mxCell id="r3y0NgNmGzbFepppXbVh-23" value=":Ui" style="rounded=0;whiteSpace=wrap;html=1;" parent="1" vertex="1">
          <mxGeometry x="610" y="420" width="120" height="30" as="geometry" />
        </mxCell>
        <mxCell id="OH_P_FwsMS1MrkZDrAPr-2" style="edgeStyle=orthogonalEdgeStyle;rounded=0;orthogonalLoop=1;jettySize=auto;html=1;exitX=0.5;exitY=1;exitDx=0;exitDy=0;endArrow=none;endFill=0;dashed=1;" edge="1" parent="1" source="r3y0NgNmGzbFepppXbVh-24">
          <mxGeometry relative="1" as="geometry">
            <mxPoint x="670.2" y="900" as="targetPoint" />
          </mxGeometry>
        </mxCell>
        <mxCell id="r3y0NgNmGzbFepppXbVh-24" value="" style="rounded=0;whiteSpace=wrap;html=1;" parent="1" vertex="1">
          <mxGeometry x="665" y="460" width="10" height="410" as="geometry" />
        </mxCell>
      </root>
    </mxGraphModel>
  </diagram>
</mxfile>
